<mxfile host="app.diagrams.net" agent="Mozilla/5.0 (Windows NT 10.0; Win64; x64) AppleWebKit/537.36 (KHTML, like Gecko) Chrome/135.0.0.0 Safari/537.36" version="26.2.14">
  <diagram id="R2lEEEUBdFMjLlhIrx00" name="Page-1">
    <mxGraphModel dx="1303" dy="1818" grid="1" gridSize="10" guides="1" tooltips="1" connect="1" arrows="1" fold="1" page="1" pageScale="1" pageWidth="850" pageHeight="1100" math="0" shadow="0" extFonts="Permanent Marker^https://fonts.googleapis.com/css?family=Permanent+Marker">
      <root>
        <mxCell id="0" />
        <mxCell id="1" parent="0" />
        <mxCell id="CIyOpY6YiamUSznfoH54-117" style="edgeStyle=orthogonalEdgeStyle;shape=connector;rounded=0;orthogonalLoop=1;jettySize=auto;html=1;exitX=0;exitY=0.5;exitDx=0;exitDy=0;entryX=1;entryY=0.5;entryDx=0;entryDy=0;strokeColor=default;align=center;verticalAlign=middle;fontFamily=Helvetica;fontSize=12;fontColor=default;labelBackgroundColor=default;startFill=0;startSize=8;endArrow=none;endSize=8;" edge="1" parent="1" source="CIyOpY6YiamUSznfoH54-120" target="CIyOpY6YiamUSznfoH54-126">
          <mxGeometry relative="1" as="geometry" />
        </mxCell>
        <mxCell id="CIyOpY6YiamUSznfoH54-118" style="edgeStyle=orthogonalEdgeStyle;shape=connector;rounded=0;orthogonalLoop=1;jettySize=auto;html=1;exitX=0;exitY=0.5;exitDx=0;exitDy=0;entryX=1;entryY=0.5;entryDx=0;entryDy=0;strokeColor=default;align=center;verticalAlign=middle;fontFamily=Helvetica;fontSize=12;fontColor=default;labelBackgroundColor=default;startFill=0;startSize=8;endArrow=none;endSize=8;" edge="1" parent="1" source="CIyOpY6YiamUSznfoH54-120" target="CIyOpY6YiamUSznfoH54-124">
          <mxGeometry relative="1" as="geometry" />
        </mxCell>
        <mxCell id="CIyOpY6YiamUSznfoH54-119" style="edgeStyle=orthogonalEdgeStyle;shape=connector;rounded=0;orthogonalLoop=1;jettySize=auto;html=1;exitX=0;exitY=0.5;exitDx=0;exitDy=0;entryX=1;entryY=0.5;entryDx=0;entryDy=0;strokeColor=default;align=center;verticalAlign=middle;fontFamily=Helvetica;fontSize=12;fontColor=default;labelBackgroundColor=default;startFill=0;startSize=8;endArrow=none;endSize=8;" edge="1" parent="1" source="CIyOpY6YiamUSznfoH54-120" target="CIyOpY6YiamUSznfoH54-125">
          <mxGeometry relative="1" as="geometry" />
        </mxCell>
        <mxCell id="CIyOpY6YiamUSznfoH54-120" value="Cliente" style="rounded=0;whiteSpace=wrap;html=1;" vertex="1" parent="1">
          <mxGeometry x="637" y="401" width="130" height="46" as="geometry" />
        </mxCell>
        <mxCell id="CIyOpY6YiamUSznfoH54-121" style="edgeStyle=none;curved=1;rounded=0;orthogonalLoop=1;jettySize=auto;html=1;exitX=0.5;exitY=0;exitDx=0;exitDy=0;fontSize=12;startSize=8;endSize=8;" edge="1" parent="1" source="CIyOpY6YiamUSznfoH54-120" target="CIyOpY6YiamUSznfoH54-120">
          <mxGeometry relative="1" as="geometry" />
        </mxCell>
        <mxCell id="CIyOpY6YiamUSznfoH54-122" style="edgeStyle=orthogonalEdgeStyle;rounded=0;orthogonalLoop=1;jettySize=auto;html=1;exitX=1;exitY=0.5;exitDx=0;exitDy=0;entryX=0;entryY=0.5;entryDx=0;entryDy=0;fontSize=12;startSize=8;endSize=8;endArrow=none;startFill=0;" edge="1" parent="1" source="CIyOpY6YiamUSznfoH54-123" target="CIyOpY6YiamUSznfoH54-120">
          <mxGeometry relative="1" as="geometry" />
        </mxCell>
        <mxCell id="CIyOpY6YiamUSznfoH54-123" value="Numero cliente" style="ellipse;whiteSpace=wrap;html=1;" vertex="1" parent="1">
          <mxGeometry x="449.5" y="343" width="121" height="44" as="geometry" />
        </mxCell>
        <mxCell id="CIyOpY6YiamUSznfoH54-124" value="Direcciones" style="ellipse;whiteSpace=wrap;html=1;" vertex="1" parent="1">
          <mxGeometry x="451.5" y="524" width="121" height="44" as="geometry" />
        </mxCell>
        <mxCell id="CIyOpY6YiamUSznfoH54-125" value="Saldo" style="ellipse;whiteSpace=wrap;html=1;" vertex="1" parent="1">
          <mxGeometry x="451.5" y="280" width="121" height="44" as="geometry" />
        </mxCell>
        <mxCell id="CIyOpY6YiamUSznfoH54-126" value="LÃ­mite credito" style="ellipse;whiteSpace=wrap;html=1;" vertex="1" parent="1">
          <mxGeometry x="451.5" y="465" width="121" height="44" as="geometry" />
        </mxCell>
        <mxCell id="CIyOpY6YiamUSznfoH54-127" style="edgeStyle=orthogonalEdgeStyle;shape=connector;rounded=0;orthogonalLoop=1;jettySize=auto;html=1;exitX=1;exitY=0.5;exitDx=0;exitDy=0;entryX=0;entryY=0.5;entryDx=0;entryDy=0;strokeColor=default;align=center;verticalAlign=middle;fontFamily=Helvetica;fontSize=12;fontColor=default;labelBackgroundColor=default;startFill=0;startSize=8;endArrow=none;endSize=8;" edge="1" parent="1" source="CIyOpY6YiamUSznfoH54-128" target="CIyOpY6YiamUSznfoH54-120">
          <mxGeometry relative="1" as="geometry" />
        </mxCell>
        <mxCell id="CIyOpY6YiamUSznfoH54-128" value="Descuento" style="ellipse;whiteSpace=wrap;html=1;" vertex="1" parent="1">
          <mxGeometry x="449.5" y="406" width="121" height="44" as="geometry" />
        </mxCell>
        <mxCell id="CIyOpY6YiamUSznfoH54-129" style="edgeStyle=orthogonalEdgeStyle;shape=connector;rounded=0;orthogonalLoop=1;jettySize=auto;html=1;exitX=0;exitY=0.5;exitDx=0;exitDy=0;entryX=1;entryY=0.5;entryDx=0;entryDy=0;strokeColor=default;align=center;verticalAlign=middle;fontFamily=Helvetica;fontSize=12;fontColor=default;labelBackgroundColor=default;startFill=0;startSize=8;endArrow=none;endSize=8;" edge="1" parent="1" source="CIyOpY6YiamUSznfoH54-131" target="CIyOpY6YiamUSznfoH54-132">
          <mxGeometry relative="1" as="geometry" />
        </mxCell>
        <mxCell id="CIyOpY6YiamUSznfoH54-130" style="edgeStyle=orthogonalEdgeStyle;shape=connector;rounded=0;orthogonalLoop=1;jettySize=auto;html=1;exitX=0.5;exitY=1;exitDx=0;exitDy=0;entryX=0.5;entryY=0;entryDx=0;entryDy=0;strokeColor=default;align=center;verticalAlign=middle;fontFamily=Helvetica;fontSize=12;fontColor=default;labelBackgroundColor=default;startFill=0;startSize=8;endArrow=none;endSize=8;" edge="1" parent="1" source="CIyOpY6YiamUSznfoH54-131" target="CIyOpY6YiamUSznfoH54-173">
          <mxGeometry relative="1" as="geometry" />
        </mxCell>
        <mxCell id="CIyOpY6YiamUSznfoH54-131" value="Articulo" style="rounded=0;whiteSpace=wrap;html=1;" vertex="1" parent="1">
          <mxGeometry x="259" y="41" width="130" height="46" as="geometry" />
        </mxCell>
        <mxCell id="CIyOpY6YiamUSznfoH54-132" value="Numero" style="ellipse;whiteSpace=wrap;html=1;" vertex="1" parent="1">
          <mxGeometry x="52" y="99" width="121" height="44" as="geometry" />
        </mxCell>
        <mxCell id="CIyOpY6YiamUSznfoH54-133" style="edgeStyle=orthogonalEdgeStyle;shape=connector;rounded=0;orthogonalLoop=1;jettySize=auto;html=1;exitX=1;exitY=0.5;exitDx=0;exitDy=0;entryX=0;entryY=0.5;entryDx=0;entryDy=0;strokeColor=default;align=center;verticalAlign=middle;fontFamily=Helvetica;fontSize=12;fontColor=default;labelBackgroundColor=default;startFill=0;startSize=8;endArrow=none;endSize=8;" edge="1" parent="1" source="CIyOpY6YiamUSznfoH54-136" target="CIyOpY6YiamUSznfoH54-144">
          <mxGeometry relative="1" as="geometry" />
        </mxCell>
        <mxCell id="CIyOpY6YiamUSznfoH54-134" style="edgeStyle=orthogonalEdgeStyle;shape=connector;rounded=0;orthogonalLoop=1;jettySize=auto;html=1;exitX=1;exitY=0.5;exitDx=0;exitDy=0;entryX=0;entryY=0.5;entryDx=0;entryDy=0;strokeColor=default;align=center;verticalAlign=middle;fontFamily=Helvetica;fontSize=12;fontColor=default;labelBackgroundColor=default;startFill=0;startSize=8;endArrow=none;endSize=8;" edge="1" parent="1" source="CIyOpY6YiamUSznfoH54-136" target="CIyOpY6YiamUSznfoH54-143">
          <mxGeometry relative="1" as="geometry" />
        </mxCell>
        <mxCell id="CIyOpY6YiamUSznfoH54-135" style="edgeStyle=orthogonalEdgeStyle;shape=connector;rounded=0;orthogonalLoop=1;jettySize=auto;html=1;exitX=0.5;exitY=1;exitDx=0;exitDy=0;entryX=0.5;entryY=0;entryDx=0;entryDy=0;strokeColor=default;align=center;verticalAlign=middle;fontFamily=Helvetica;fontSize=12;fontColor=default;labelBackgroundColor=default;startFill=0;startSize=8;endArrow=none;endSize=8;" edge="1" parent="1" source="CIyOpY6YiamUSznfoH54-136" target="CIyOpY6YiamUSznfoH54-167">
          <mxGeometry relative="1" as="geometry" />
        </mxCell>
        <mxCell id="CIyOpY6YiamUSznfoH54-136" value="Cabecera" style="rounded=0;whiteSpace=wrap;html=1;" vertex="1" parent="1">
          <mxGeometry x="637" y="207" width="130" height="46" as="geometry" />
        </mxCell>
        <mxCell id="CIyOpY6YiamUSznfoH54-137" style="edgeStyle=orthogonalEdgeStyle;shape=connector;rounded=0;orthogonalLoop=1;jettySize=auto;html=1;exitX=1;exitY=0.5;exitDx=0;exitDy=0;entryX=0;entryY=0.5;entryDx=0;entryDy=0;strokeColor=default;align=center;verticalAlign=middle;fontFamily=Helvetica;fontSize=12;fontColor=default;labelBackgroundColor=default;startFill=0;startSize=8;endArrow=none;endSize=8;" edge="1" parent="1" source="CIyOpY6YiamUSznfoH54-140" target="CIyOpY6YiamUSznfoH54-145">
          <mxGeometry relative="1" as="geometry" />
        </mxCell>
        <mxCell id="CIyOpY6YiamUSznfoH54-138" style="edgeStyle=orthogonalEdgeStyle;shape=connector;rounded=0;orthogonalLoop=1;jettySize=auto;html=1;exitX=0.5;exitY=1;exitDx=0;exitDy=0;strokeColor=default;align=center;verticalAlign=middle;fontFamily=Helvetica;fontSize=12;fontColor=default;labelBackgroundColor=default;startFill=0;startSize=8;endArrow=none;endSize=8;" edge="1" parent="1" source="CIyOpY6YiamUSznfoH54-140" target="CIyOpY6YiamUSznfoH54-169">
          <mxGeometry relative="1" as="geometry" />
        </mxCell>
        <mxCell id="CIyOpY6YiamUSznfoH54-139" style="edgeStyle=orthogonalEdgeStyle;shape=connector;rounded=0;orthogonalLoop=1;jettySize=auto;html=1;exitX=0;exitY=0.5;exitDx=0;exitDy=0;entryX=1;entryY=0.5;entryDx=0;entryDy=0;strokeColor=default;align=center;verticalAlign=middle;fontFamily=Helvetica;fontSize=12;fontColor=default;labelBackgroundColor=default;startFill=0;startSize=8;endArrow=none;endSize=8;" edge="1" parent="1" source="CIyOpY6YiamUSznfoH54-140" target="CIyOpY6YiamUSznfoH54-171">
          <mxGeometry relative="1" as="geometry" />
        </mxCell>
        <mxCell id="CIyOpY6YiamUSznfoH54-140" value="Cuerpo" style="rounded=0;whiteSpace=wrap;html=1;" vertex="1" parent="1">
          <mxGeometry x="637" y="40.5" width="130" height="46" as="geometry" />
        </mxCell>
        <mxCell id="CIyOpY6YiamUSznfoH54-141" style="edgeStyle=orthogonalEdgeStyle;shape=connector;rounded=0;orthogonalLoop=1;jettySize=auto;html=1;exitX=0;exitY=0.5;exitDx=0;exitDy=0;entryX=1;entryY=0.5;entryDx=0;entryDy=0;strokeColor=default;align=center;verticalAlign=middle;fontFamily=Helvetica;fontSize=12;fontColor=default;labelBackgroundColor=default;startFill=0;startSize=8;endArrow=none;endSize=8;" edge="1" parent="1" source="CIyOpY6YiamUSznfoH54-142" target="CIyOpY6YiamUSznfoH54-136">
          <mxGeometry relative="1" as="geometry" />
        </mxCell>
        <mxCell id="CIyOpY6YiamUSznfoH54-142" value="Numero cliente" style="ellipse;whiteSpace=wrap;html=1;" vertex="1" parent="1">
          <mxGeometry x="838" y="208" width="121" height="44" as="geometry" />
        </mxCell>
        <mxCell id="CIyOpY6YiamUSznfoH54-143" value="Direccion" style="ellipse;whiteSpace=wrap;html=1;" vertex="1" parent="1">
          <mxGeometry x="838" y="266" width="121" height="44" as="geometry" />
        </mxCell>
        <mxCell id="CIyOpY6YiamUSznfoH54-144" value="Fecha" style="ellipse;whiteSpace=wrap;html=1;" vertex="1" parent="1">
          <mxGeometry x="838" y="150" width="121" height="44" as="geometry" />
        </mxCell>
        <mxCell id="CIyOpY6YiamUSznfoH54-145" value="Numero articulo" style="ellipse;whiteSpace=wrap;html=1;" vertex="1" parent="1">
          <mxGeometry x="836" y="14" width="121" height="44" as="geometry" />
        </mxCell>
        <mxCell id="CIyOpY6YiamUSznfoH54-146" style="edgeStyle=orthogonalEdgeStyle;shape=connector;rounded=0;orthogonalLoop=1;jettySize=auto;html=1;exitX=0;exitY=0.5;exitDx=0;exitDy=0;entryX=1;entryY=0.5;entryDx=0;entryDy=0;strokeColor=default;align=center;verticalAlign=middle;fontFamily=Helvetica;fontSize=12;fontColor=default;labelBackgroundColor=default;startFill=0;startSize=8;endArrow=none;endSize=8;" edge="1" parent="1" source="CIyOpY6YiamUSznfoH54-147" target="CIyOpY6YiamUSznfoH54-140">
          <mxGeometry relative="1" as="geometry" />
        </mxCell>
        <mxCell id="CIyOpY6YiamUSznfoH54-147" value="Cantidad" style="ellipse;whiteSpace=wrap;html=1;" vertex="1" parent="1">
          <mxGeometry x="836" y="69" width="121" height="44" as="geometry" />
        </mxCell>
        <mxCell id="CIyOpY6YiamUSznfoH54-148" style="edgeStyle=orthogonalEdgeStyle;shape=connector;rounded=0;orthogonalLoop=1;jettySize=auto;html=1;exitX=0;exitY=0.5;exitDx=0;exitDy=0;entryX=1;entryY=0.5;entryDx=0;entryDy=0;strokeColor=default;align=center;verticalAlign=middle;fontFamily=Helvetica;fontSize=12;fontColor=default;labelBackgroundColor=default;startFill=0;startSize=8;endArrow=none;endSize=8;" edge="1" parent="1" source="CIyOpY6YiamUSznfoH54-152" target="CIyOpY6YiamUSznfoH54-161">
          <mxGeometry relative="1" as="geometry" />
        </mxCell>
        <mxCell id="CIyOpY6YiamUSznfoH54-149" style="edgeStyle=orthogonalEdgeStyle;shape=connector;rounded=0;orthogonalLoop=1;jettySize=auto;html=1;exitX=0;exitY=0.5;exitDx=0;exitDy=0;entryX=1;entryY=0.5;entryDx=0;entryDy=0;strokeColor=default;align=center;verticalAlign=middle;fontFamily=Helvetica;fontSize=12;fontColor=default;labelBackgroundColor=default;startFill=0;startSize=8;endArrow=none;endSize=8;" edge="1" parent="1" source="CIyOpY6YiamUSznfoH54-152" target="CIyOpY6YiamUSznfoH54-153">
          <mxGeometry relative="1" as="geometry" />
        </mxCell>
        <mxCell id="CIyOpY6YiamUSznfoH54-150" style="edgeStyle=orthogonalEdgeStyle;shape=connector;rounded=0;orthogonalLoop=1;jettySize=auto;html=1;exitX=0;exitY=0.5;exitDx=0;exitDy=0;entryX=1;entryY=0.5;entryDx=0;entryDy=0;strokeColor=default;align=center;verticalAlign=middle;fontFamily=Helvetica;fontSize=12;fontColor=default;labelBackgroundColor=default;startFill=0;startSize=8;endArrow=none;endSize=8;" edge="1" parent="1" source="CIyOpY6YiamUSznfoH54-152" target="CIyOpY6YiamUSznfoH54-160">
          <mxGeometry relative="1" as="geometry" />
        </mxCell>
        <mxCell id="CIyOpY6YiamUSznfoH54-151" style="edgeStyle=orthogonalEdgeStyle;shape=connector;rounded=0;orthogonalLoop=1;jettySize=auto;html=1;exitX=0.5;exitY=0;exitDx=0;exitDy=0;entryX=0.5;entryY=1;entryDx=0;entryDy=0;strokeColor=default;align=center;verticalAlign=middle;fontFamily=Helvetica;fontSize=12;fontColor=default;labelBackgroundColor=default;startFill=0;startSize=8;endArrow=none;endSize=8;" edge="1" parent="1" source="CIyOpY6YiamUSznfoH54-152" target="CIyOpY6YiamUSznfoH54-173">
          <mxGeometry relative="1" as="geometry" />
        </mxCell>
        <mxCell id="CIyOpY6YiamUSznfoH54-152" value="Fabrica" style="whiteSpace=wrap;html=1;align=center;fontFamily=Helvetica;fontSize=12;fontColor=default;labelBackgroundColor=default;" vertex="1" parent="1">
          <mxGeometry x="260.5" y="280" width="127" height="48" as="geometry" />
        </mxCell>
        <mxCell id="CIyOpY6YiamUSznfoH54-153" value="Telefono" style="ellipse;whiteSpace=wrap;html=1;" vertex="1" parent="1">
          <mxGeometry x="50" y="281.5" width="121" height="44" as="geometry" />
        </mxCell>
        <mxCell id="CIyOpY6YiamUSznfoH54-154" style="edgeStyle=orthogonalEdgeStyle;shape=connector;rounded=0;orthogonalLoop=1;jettySize=auto;html=1;exitX=1;exitY=0.5;exitDx=0;exitDy=0;entryX=0;entryY=0.5;entryDx=0;entryDy=0;strokeColor=default;align=center;verticalAlign=middle;fontFamily=Helvetica;fontSize=12;fontColor=default;labelBackgroundColor=default;startFill=0;startSize=8;endArrow=none;endSize=8;" edge="1" parent="1" source="CIyOpY6YiamUSznfoH54-155" target="CIyOpY6YiamUSznfoH54-124">
          <mxGeometry relative="1" as="geometry" />
        </mxCell>
        <mxCell id="CIyOpY6YiamUSznfoH54-155" value="Numero calle" style="ellipse;whiteSpace=wrap;html=1;align=center;fontFamily=Helvetica;fontSize=12;fontColor=default;labelBackgroundColor=default;" vertex="1" parent="1">
          <mxGeometry x="274" y="525" width="100" height="40" as="geometry" />
        </mxCell>
        <mxCell id="CIyOpY6YiamUSznfoH54-156" style="edgeStyle=orthogonalEdgeStyle;shape=connector;rounded=0;orthogonalLoop=1;jettySize=auto;html=1;exitX=1;exitY=0.5;exitDx=0;exitDy=0;entryX=0;entryY=0.5;entryDx=0;entryDy=0;strokeColor=default;align=center;verticalAlign=middle;fontFamily=Helvetica;fontSize=12;fontColor=default;labelBackgroundColor=default;startFill=0;startSize=8;endArrow=none;endSize=8;" edge="1" parent="1" source="CIyOpY6YiamUSznfoH54-157" target="CIyOpY6YiamUSznfoH54-124">
          <mxGeometry relative="1" as="geometry" />
        </mxCell>
        <mxCell id="CIyOpY6YiamUSznfoH54-157" value="Comuna" style="ellipse;whiteSpace=wrap;html=1;align=center;fontFamily=Helvetica;fontSize=12;fontColor=default;labelBackgroundColor=default;" vertex="1" parent="1">
          <mxGeometry x="274" y="477" width="100" height="40" as="geometry" />
        </mxCell>
        <mxCell id="CIyOpY6YiamUSznfoH54-158" style="edgeStyle=orthogonalEdgeStyle;shape=connector;rounded=0;orthogonalLoop=1;jettySize=auto;html=1;exitX=1;exitY=0.5;exitDx=0;exitDy=0;entryX=0;entryY=0.5;entryDx=0;entryDy=0;strokeColor=default;align=center;verticalAlign=middle;fontFamily=Helvetica;fontSize=12;fontColor=default;labelBackgroundColor=default;startFill=0;startSize=8;endArrow=none;endSize=8;" edge="1" parent="1" source="CIyOpY6YiamUSznfoH54-159" target="CIyOpY6YiamUSznfoH54-124">
          <mxGeometry relative="1" as="geometry" />
        </mxCell>
        <mxCell id="CIyOpY6YiamUSznfoH54-159" value="Ciudad" style="ellipse;whiteSpace=wrap;html=1;align=center;fontFamily=Helvetica;fontSize=12;fontColor=default;labelBackgroundColor=default;" vertex="1" parent="1">
          <mxGeometry x="274" y="574" width="100" height="40" as="geometry" />
        </mxCell>
        <mxCell id="CIyOpY6YiamUSznfoH54-160" value="Tipo de fabrica" style="ellipse;whiteSpace=wrap;html=1;" vertex="1" parent="1">
          <mxGeometry x="50" y="334.5" width="121" height="44" as="geometry" />
        </mxCell>
        <mxCell id="CIyOpY6YiamUSznfoH54-161" value="Numero fabrica" style="ellipse;whiteSpace=wrap;html=1;" vertex="1" parent="1">
          <mxGeometry x="50" y="229.5" width="121" height="44" as="geometry" />
        </mxCell>
        <mxCell id="CIyOpY6YiamUSznfoH54-162" style="edgeStyle=orthogonalEdgeStyle;shape=connector;rounded=0;orthogonalLoop=1;jettySize=auto;html=1;exitX=1;exitY=0.5;exitDx=0;exitDy=0;entryX=0;entryY=0.5;entryDx=0;entryDy=0;strokeColor=default;align=center;verticalAlign=middle;fontFamily=Helvetica;fontSize=12;fontColor=default;labelBackgroundColor=default;startFill=0;startSize=8;endArrow=none;endSize=8;" edge="1" parent="1" source="CIyOpY6YiamUSznfoH54-163" target="CIyOpY6YiamUSznfoH54-131">
          <mxGeometry relative="1" as="geometry" />
        </mxCell>
        <mxCell id="CIyOpY6YiamUSznfoH54-163" value="Existencias" style="ellipse;whiteSpace=wrap;html=1;" vertex="1" parent="1">
          <mxGeometry x="52" y="42" width="121" height="44" as="geometry" />
        </mxCell>
        <mxCell id="CIyOpY6YiamUSznfoH54-164" style="edgeStyle=orthogonalEdgeStyle;shape=connector;rounded=0;orthogonalLoop=1;jettySize=auto;html=1;exitX=1;exitY=0.5;exitDx=0;exitDy=0;entryX=0;entryY=0.5;entryDx=0;entryDy=0;strokeColor=default;align=center;verticalAlign=middle;fontFamily=Helvetica;fontSize=12;fontColor=default;labelBackgroundColor=default;startFill=0;startSize=8;endArrow=none;endSize=8;" edge="1" parent="1" source="CIyOpY6YiamUSznfoH54-165" target="CIyOpY6YiamUSznfoH54-131">
          <mxGeometry relative="1" as="geometry" />
        </mxCell>
        <mxCell id="CIyOpY6YiamUSznfoH54-165" value="DescripciÃ³n" style="ellipse;whiteSpace=wrap;html=1;" vertex="1" parent="1">
          <mxGeometry x="52" y="-20" width="121" height="44" as="geometry" />
        </mxCell>
        <mxCell id="CIyOpY6YiamUSznfoH54-166" style="edgeStyle=orthogonalEdgeStyle;shape=connector;rounded=0;orthogonalLoop=1;jettySize=auto;html=1;exitX=0.5;exitY=1;exitDx=0;exitDy=0;entryX=0.5;entryY=0;entryDx=0;entryDy=0;strokeColor=default;align=center;verticalAlign=middle;fontFamily=Helvetica;fontSize=12;fontColor=default;labelBackgroundColor=default;startFill=0;startSize=8;endArrow=none;endSize=8;" edge="1" parent="1" source="CIyOpY6YiamUSznfoH54-167" target="CIyOpY6YiamUSznfoH54-120">
          <mxGeometry relative="1" as="geometry" />
        </mxCell>
        <mxCell id="CIyOpY6YiamUSznfoH54-167" value="Solicita" style="shape=rhombus;perimeter=rhombusPerimeter;whiteSpace=wrap;html=1;align=center;fontFamily=Helvetica;fontSize=12;fontColor=default;labelBackgroundColor=default;" vertex="1" parent="1">
          <mxGeometry x="642" y="295" width="120" height="60" as="geometry" />
        </mxCell>
        <mxCell id="CIyOpY6YiamUSznfoH54-168" style="edgeStyle=orthogonalEdgeStyle;shape=connector;rounded=0;orthogonalLoop=1;jettySize=auto;html=1;exitX=0.5;exitY=1;exitDx=0;exitDy=0;entryX=0.5;entryY=0;entryDx=0;entryDy=0;strokeColor=default;align=center;verticalAlign=middle;fontFamily=Helvetica;fontSize=12;fontColor=default;labelBackgroundColor=default;startFill=0;startSize=8;endArrow=none;endSize=8;" edge="1" parent="1" source="CIyOpY6YiamUSznfoH54-169" target="CIyOpY6YiamUSznfoH54-136">
          <mxGeometry relative="1" as="geometry" />
        </mxCell>
        <mxCell id="CIyOpY6YiamUSznfoH54-169" value="Conforma" style="shape=rhombus;perimeter=rhombusPerimeter;whiteSpace=wrap;html=1;align=center;fontFamily=Helvetica;fontSize=12;fontColor=default;labelBackgroundColor=default;" vertex="1" parent="1">
          <mxGeometry x="642" y="117" width="120" height="60" as="geometry" />
        </mxCell>
        <mxCell id="CIyOpY6YiamUSznfoH54-170" style="edgeStyle=orthogonalEdgeStyle;shape=connector;rounded=0;orthogonalLoop=1;jettySize=auto;html=1;exitX=0;exitY=0.5;exitDx=0;exitDy=0;entryX=1;entryY=0.5;entryDx=0;entryDy=0;strokeColor=default;align=center;verticalAlign=middle;fontFamily=Helvetica;fontSize=12;fontColor=default;labelBackgroundColor=default;startFill=0;startSize=8;endArrow=none;endSize=8;" edge="1" parent="1" source="CIyOpY6YiamUSznfoH54-171" target="CIyOpY6YiamUSznfoH54-131">
          <mxGeometry relative="1" as="geometry" />
        </mxCell>
        <mxCell id="CIyOpY6YiamUSznfoH54-171" value="Contiene" style="shape=rhombus;perimeter=rhombusPerimeter;whiteSpace=wrap;html=1;align=center;fontFamily=Helvetica;fontSize=12;fontColor=default;labelBackgroundColor=default;" vertex="1" parent="1">
          <mxGeometry x="451" y="33.5" width="120" height="60" as="geometry" />
        </mxCell>
        <mxCell id="CIyOpY6YiamUSznfoH54-172" style="edgeStyle=orthogonalEdgeStyle;shape=connector;rounded=0;orthogonalLoop=1;jettySize=auto;html=1;exitX=1;exitY=0.5;exitDx=0;exitDy=0;strokeColor=default;align=center;verticalAlign=middle;fontFamily=Helvetica;fontSize=12;fontColor=default;labelBackgroundColor=default;startFill=0;startSize=8;endArrow=none;endSize=8;" edge="1" parent="1" source="CIyOpY6YiamUSznfoH54-173" target="CIyOpY6YiamUSznfoH54-174">
          <mxGeometry relative="1" as="geometry" />
        </mxCell>
        <mxCell id="CIyOpY6YiamUSznfoH54-173" value="Distribuye" style="shape=rhombus;perimeter=rhombusPerimeter;whiteSpace=wrap;html=1;align=center;fontFamily=Helvetica;fontSize=12;fontColor=default;labelBackgroundColor=default;" vertex="1" parent="1">
          <mxGeometry x="264" y="154" width="120" height="60" as="geometry" />
        </mxCell>
        <mxCell id="CIyOpY6YiamUSznfoH54-174" value="Cantidad" style="ellipse;whiteSpace=wrap;html=1;" vertex="1" parent="1">
          <mxGeometry x="451.5" y="162" width="121" height="44" as="geometry" />
        </mxCell>
      </root>
    </mxGraphModel>
  </diagram>
</mxfile>
